<svg width="256" height="252" viewBox="0 0 256 252" fill="none" xmlns="http://www.w3.org/2000/svg">
<path d="M158.966 110.484C158.966 110.484 172.188 152.937 223.861 158.831C232.406 159.805 242.086 160.859 251.982 157.939C252.404 157.965 252.816 158.082 253.188 158.281C253.561 158.48 253.887 158.756 254.144 159.092C254.4 159.428 254.581 159.816 254.675 160.228C254.769 160.64 254.772 161.067 254.686 161.481C253.231 171.412 249.939 180.985 244.979 189.711C232.433 212.018 204.879 241.519 142.661 251.902C139.362 251.902 132.845 249.009 129.817 249.523C129.817 249.468 54.7818 183.627 158.966 110.484Z" fill="#CFBFA3"/>
<path d="M142.66 251.902C142.66 251.902 88.3104 174.19 173.648 134.387L163.021 120.543C163.021 120.543 52.5098 176.948 142.66 251.902Z" fill="#B9A798"/>
<path d="M254.687 161.59C253 171.98 249.436 181.976 244.169 191.09L228.377 159.318C235.694 160.292 243.126 159.916 250.307 158.21C253.741 157.426 255.228 158.561 254.687 161.59Z" fill="#222222"/>
<path d="M164.022 183.302C170.1 183.302 175.027 178.375 175.027 172.297C175.027 166.219 170.1 161.292 164.022 161.292C157.944 161.292 153.017 166.219 153.017 172.297C153.017 178.375 157.944 183.302 164.022 183.302Z" fill="#222222"/>
<path d="M166.105 18.4952L175.244 3.46108C159.834 6.02195 144.76 10.303 130.304 16.2238C126.511 16.5802 122.739 17.1307 119.002 17.8732L137.308 0C119.213 4.42784 102.828 14.0973 90.2045 27.7968C88.3387 28.7162 86.5 29.7167 84.7965 30.7712L99.1546 4.32637C79.6778 14.8288 64.4032 31.7073 55.8911 52.1326L64.7601 21.3073C64.7601 21.3073 42.3442 38.2883 38.3694 80.1728C37.8556 81.2003 37.3418 82.2278 36.8551 83.2823L34.4216 45.7512C34.4216 45.7512 12.6276 80.4972 26.6341 119.786L11.4108 81.9303C11.4108 81.9303 1.9739 111.674 24.9306 150.233L0 121.354C0 121.354 2.40653 171.188 30.9064 198.147C30.9064 198.147 41.1544 195.092 47.4547 202.338C57.4909 216.935 70.7738 229.007 86.2606 237.607C101.747 246.206 119.017 251.1 136.713 251.902C138.2 251.902 141.174 251.902 141.174 251.902C141.174 251.902 88.2846 206.232 139.254 141.039C190.251 81.038 256.147 122.76 255.525 117.379C252.446 93.7587 242.237 71.6387 226.26 53.9708C210.283 36.3029 189.298 23.9273 166.105 18.4952V18.4952Z" fill="#22A079"/>
<path d="M118.893 213.289C118.893 213.289 60.5141 233.65 6.27246 154.802C12.091 175.49 22.5083 194.596 36.7462 210.693C56.5663 233.488 95.9362 253.281 142.661 251.848C137.016 247.487 132.308 242.034 128.816 235.813C124.783 228.646 121.459 221.103 118.893 213.289V213.289Z" fill="#1B8061"/>
</svg>
